<svg width="76" height="46" viewBox="0 0 76 46" fill="none" xmlns="http://www.w3.org/2000/svg">
<path d="M66.1401 42.56H64.7001V34.4H66.1401C66.6801 34.4 67.1001 33.98 67.1001 33.44V32.18C67.1001 31.64 66.6801 31.22 66.1401 31.22H13.9401C10.1601 31.7 7.2201 35.06 7.5201 39.02C7.8201 42.92 11.2401 45.86 15.1401 45.86H66.3801C66.8001 45.86 67.1001 45.56 67.1001 45.14V43.58C67.1601 43.04 66.6801 42.56 66.1401 42.56ZM61.4601 42.56H14.8401C12.5601 42.56 10.7601 40.7 10.7601 38.48C10.7601 36.2 12.6201 34.4 14.8401 34.4H61.4601V42.56V42.56Z" fill="#5048DC"/>
<path d="M59.78 36.7401H15.38C15.14 36.7401 15.02 36.5601 15.02 36.3801V35.7801C15.02 35.54 15.2 35.42 15.38 35.42H59.78C60.02 35.42 60.14 35.6 60.14 35.7801V36.3801C60.14 36.5601 59.96 36.7401 59.78 36.7401Z" fill="#5048DC"/>
<path d="M59.78 39.2001H15.38C15.14 39.2001 15.02 39.0201 15.02 38.8401V38.2401C15.02 38.0001 15.2 37.8801 15.38 37.8801H59.78C60.02 37.8801 60.14 38.0601 60.14 38.2401V38.8401C60.14 39.0201 59.96 39.2001 59.78 39.2001Z" fill="#5048DC"/>
<path d="M59.78 41.6601H15.38C15.14 41.6601 15.02 41.4801 15.02 41.3001V40.7001C15.02 40.4601 15.2 40.3401 15.38 40.3401H59.78C60.02 40.3401 60.14 40.5201 60.14 40.7001V41.3001C60.14 41.4801 59.96 41.6601 59.78 41.6601Z" fill="#5048DC"/>
<path d="M74.54 27.02H73.1V18.86H74.54C75.08 18.86 75.5 18.44 75.5 17.9V16.64C75.5 16.1 75.08 15.68 74.54 15.68H22.34C18.56 16.16 15.62 19.52 15.92 23.48C16.22 27.38 19.64 30.32 23.54 30.32H74.78C75.2 30.32 75.5 30.02 75.5 29.6V28.04C75.5 27.5 75.08 27.02 74.54 27.02ZM69.8 27.02H23.18C20.9 27.02 19.1 25.16 19.1 22.94C19.1 20.66 20.96 18.86 23.18 18.86H69.8V27.02Z" fill="#5048DC"/>
<path d="M68.1199 21.2H23.7199C23.4799 21.2 23.3599 21.02 23.3599 20.84V20.24C23.3599 20 23.5399 19.88 23.7199 19.88H68.1199C68.3599 19.88 68.4799 20.06 68.4799 20.24V20.84C68.4799 21.02 68.2999 21.2 68.1199 21.2Z" fill="#5048DC"/>
<path d="M68.1199 23.66H23.7199C23.4799 23.66 23.3599 23.48 23.3599 23.3V22.7C23.3599 22.46 23.5399 22.34 23.7199 22.34H68.1199C68.3599 22.34 68.4799 22.52 68.4799 22.7V23.3C68.4799 23.48 68.2999 23.66 68.1199 23.66Z" fill="#5048DC"/>
<path d="M68.1199 26.12H23.7199C23.4799 26.12 23.3599 25.9401 23.3599 25.7601V25.1601C23.3599 24.9201 23.5399 24.8 23.7199 24.8H68.1199C68.3599 24.8 68.4799 24.9801 68.4799 25.1601V25.7601C68.4799 25.9401 68.2999 26.12 68.1199 26.12Z" fill="#5048DC"/>
<path d="M59.1801 11.48H57.7401V3.32001H59.1801C59.7201 3.32001 60.1401 2.90001 60.1401 2.36001V1.10001C60.1401 0.560014 59.7201 0.140015 59.1801 0.140015H6.98014C3.20014 0.620015 0.26014 3.98002 0.56014 7.94002C0.86014 11.84 4.28014 14.78 8.18014 14.78H59.4201C59.8401 14.78 60.1401 14.48 60.1401 14.06V12.5C60.1401 11.96 59.7201 11.48 59.1801 11.48ZM54.4401 11.48H7.88014C5.60014 11.48 3.80014 9.62002 3.80014 7.40002C3.80014 5.12002 5.66014 3.32001 7.88014 3.32001H54.5001V11.48H54.4401Z" fill="#5048DC"/>
<path d="M52.76 5.66002H8.36C8.12 5.66002 8 5.48002 8 5.30002V4.70003C8 4.46003 8.18 4.34003 8.36 4.34003H52.76C53 4.34003 53.12 4.52003 53.12 4.70003V5.30002C53.12 5.48002 52.94 5.66002 52.76 5.66002Z" fill="#5048DC"/>
<path d="M52.76 8.12002H8.36C8.12 8.12002 8 7.94002 8 7.76002V7.16002C8 6.92002 8.18 6.80002 8.36 6.80002H52.76C53 6.80002 53.12 6.98002 53.12 7.16002V7.76002C53.12 7.94002 52.94 8.12002 52.76 8.12002Z" fill="#5048DC"/>
<path d="M52.76 10.58H8.36C8.12 10.58 8 10.4 8 10.22V9.62001C8 9.38001 8.18 9.26001 8.36 9.26001H52.76C53 9.26001 53.12 9.44001 53.12 9.62001V10.22C53.12 10.4 52.94 10.58 52.76 10.58Z" fill="#5048DC"/>
</svg>
